<svg xmlns="http://www.w3.org/2000/svg" viewBox="0 0 124 32"><path d="M11.1,6.9c5.2,0,7.5,3.1,7.5,9c0,5.3-2.5,8.8-7.5,8.8c-1.8,0-3.4-0.5-4.6-1.4l-0.3-0.2	l-0.1,0.1l0.1,5c0,0.3-0.2,0.6-0.4,0.7l-0.1,0l-3.4,0.9c-0.1,0-0.1,0-0.2,0c-0.4,0-0.7-0.3-0.7-0.6l0-0.1V8c0-0.4,0.3-0.7,0.6-0.7	l0.1,0h2.5c0.3,0,0.5,0.2,0.7,0.4l0,0.1l0.3,1.1C6.9,7.7,8.6,6.9,11.1,6.9z M36.4,1.9c0.4,0,0.7,0.3,0.7,0.6l0,0.1v21.1	c0,0.4-0.3,0.7-0.6,0.7l-0.1,0h-2.5c-0.3,0-0.5-0.2-0.7-0.4l0-0.1l-0.3-1.1c-1.3,1.2-3,2-5.5,2c-5.2,0-7.5-3.1-7.5-9	c0-5.3,2.5-8.8,7.5-8.8c1.8,0,3.4,0.5,4.6,1.4l0.3,0.2l0.1-0.1l-0.1-5c0-0.3,0.2-0.6,0.4-0.7l0.1,0l3.4-0.9	C36.2,1.9,36.3,1.9,36.4,1.9z M100.7,7.2c4.9,0,8,2.8,8,8l0,0.4c0,0.3,0,0.6-0.1,1c0,0.4-0.4,0.7-0.7,0.7H97.1	c0.3,2.5,1.9,3.6,5.2,3.6l0.6,0c0.9,0,1.3-0.1,2.5-0.4c0.1,0,0.3-0.1,0.5-0.2c0.3-0.1,0.7,0,0.9,0.3l0.1,0.1l0,0l0.9,2.2	c0.2,0.4,0,0.8-0.4,1l-0.1,0l0,0c-2.3,0.7-4.2,1-5.6,1c-6.6-0.2-9.6-3.3-9.6-9C92.2,10.7,94.9,7.2,100.7,7.2z M120.9,7.2	c0.3,0,0.6,0,0.9,0.1l0.3,0.1l0,0c0.4,0.1,0.7,0.5,0.6,0.9l0,0.1l0,0l-1,3.1c-0.1,0.4-0.5,0.6-0.9,0.5l-0.2-0.1c0,0-0.1,0-0.1,0	c-0.3,0-0.6-0.1-1-0.1c-2.6,0-3.5,1.8-3.5,4.7v7.3c0,0.4-0.3,0.7-0.7,0.7h-3.3c-0.4,0-0.7-0.3-0.7-0.7V8.4c0-0.4,0.3-0.7,0.7-0.7	h2.5c0.4,0,0.7,0.3,0.7,0.6l0.4,2.2h0.1C116.7,8.4,118.6,7.2,120.9,7.2z M69.9,8.2l0.1,0l3.5,0.9C73.8,9.2,74,9.4,74,9.7l0,0.1v13.9	c0,0.4-0.3,0.6-0.6,0.7l-0.1,0h-3.5c-0.4,0-0.6-0.3-0.7-0.6l0-0.1V8.9c0-0.1,0-0.1,0-0.2c0.1-0.3,0.3-0.5,0.6-0.5L69.9,8.2z M66.7,1.7c0.1,0,0.2,0,0.2,0c0.3,0.1,0.6,0.5,0.5,0.8l0,0.1l-1,3.1c-0.1,0.3-0.3,0.5-0.6,0.5l-0.1,0h-7.6v4.3h7	c0.4,0,0.7,0.3,0.7,0.6l0,0.1l0,2.8c0,0.4-0.3,0.7-0.6,0.7l-0.1,0h-7v8.8c0,0.4-0.3,0.7-0.6,0.7l-0.1,0H54c-0.4,0-0.7-0.3-0.7-0.6	l0-0.1v-20c0-1,0.8-1.9,1.8-2l0.2,0H66.7z M48.3,1.8c0.5,0,1,0,1.5,0.1c0.2,0,0.5,0.1,0.9,0.1l0.1,0l0,0c0.3,0.1,0.5,0.4,0.5,0.8	l0,0.1l-0.5,1.5C50.6,4.8,50.3,5,50,5l-0.1,0c-0.2,0-0.4,0-0.6,0c-2,0-2.7,0.6-2.8,1.6l0,0.2v0.5H50c0.4,0,0.7,0.3,0.7,0.6l0,0.1v2	c0,0.4-0.3,0.7-0.6,0.7l-0.1,0h-3.5v13c0,0.4-0.3,0.7-0.6,0.7l-0.1,0h-3.4c-0.4,0-0.7-0.3-0.7-0.6l0-0.1v-13h-1.8	c-0.4,0-0.7-0.3-0.7-0.6l0-0.1v-2c0-0.4,0.3-0.7,0.6-0.7l0.1,0h1.8V6.8C41.6,4.2,43.6,1.8,48.3,1.8z M85.6,4.1c0.1,0,0.1,0,0.2,0	L89.1,5c0.3,0.1,0.6,0.4,0.6,0.7v18c0,0.4-0.3,0.7-0.7,0.7h-3.4c-0.4,0-0.7-0.3-0.7-0.7V4.8C84.8,4.4,85.2,4.1,85.6,4.1z M77.7,4.1	c0.1,0,0.1,0,0.2,0L81.3,5c0.3,0.1,0.6,0.4,0.6,0.7v18c0,0.4-0.3,0.7-0.7,0.7h-3.4c-0.4,0-0.7-0.3-0.7-0.7V4.8	C77,4.4,77.3,4.1,77.7,4.1z M28.7,11.1c-2.9,0-3.9,1.4-3.9,4.9c0,3.6,0.9,5,3.9,5c1.8,0,2.9-0.7,3.4-1.4l0.1-0.1v-7	C31.6,11.7,30.3,11.1,28.7,11.1z M9.6,10.7c-1.8,0-2.9,0.7-3.4,1.4l-0.1,0.1v7C6.8,20,8,20.6,9.6,20.6c2.9,0,3.9-1.4,3.9-4.9	C13.6,12.1,12.7,10.7,9.6,10.7z M100.8,11c-2.5,0-3.5,1-3.7,3.2h7.3C104.4,12,103,11,100.8,11z M69.9,2.3l0.1,0l3.5,0.9	C73.8,3.4,74,3.6,74,3.8L74,4v1.9C74,6,74,6,74,6.1c-0.1,0.3-0.4,0.6-0.7,0.5l-0.1,0l-3.5-0.9c-0.3-0.1-0.5-0.3-0.5-0.6l0-0.1V3	c0-0.1,0-0.1,0-0.2c0.1-0.3,0.3-0.5,0.6-0.5L69.9,2.3z" fill-rule="evenodd" clip-rule="evenodd" fill="#e8501f"/></svg>
